<?xml version="1.0" encoding="UTF-8" standalone="no"?>
<!-- Created with Inkscape (http://www.inkscape.org/) -->

<svg
   xmlns:dc="http://purl.org/dc/elements/1.1/"
   xmlns:cc="http://creativecommons.org/ns#"
   xmlns:rdf="http://www.w3.org/1999/02/22-rdf-syntax-ns#"
   xmlns:svg="http://www.w3.org/2000/svg"
   xmlns="http://www.w3.org/2000/svg"
   xmlns:sodipodi="http://sodipodi.sourceforge.net/DTD/sodipodi-0.dtd"
   xmlns:inkscape="http://www.inkscape.org/namespaces/inkscape"
   version="1.1"
   id="svg3985"
   width="2000"
   height="2000.7239"
   viewBox="0 0 2000.0001 2000.7238"
   sodipodi:docname="codepen.svg"
   inkscape:version="0.92.4 (5da689c313, 2019-01-14)">
  <metadata
     id="metadata3991">
    <rdf:RDF>
      <cc:Work
         rdf:about="">
        <dc:format>image/svg+xml</dc:format>
        <dc:type
           rdf:resource="http://purl.org/dc/dcmitype/StillImage" />
      </cc:Work>
    </rdf:RDF>
  </metadata>
  <defs
     id="defs3989" />
  <sodipodi:namedview
     pagecolor="#ffffff"
     bordercolor="#666666"
     borderopacity="1"
     objecttolerance="10"
     gridtolerance="10"
     guidetolerance="10"
     inkscape:pageopacity="0"
     inkscape:pageshadow="2"
     inkscape:window-width="1600"
     inkscape:window-height="822"
     id="namedview3987"
     showgrid="false"
     inkscape:zoom="0.26291668"
     inkscape:cx="1427.0696"
     inkscape:cy="840.78666"
     inkscape:window-x="0"
     inkscape:window-y="29"
     inkscape:window-maximized="1"
     inkscape:current-layer="svg3985" />
  <path
     style="fill:#000000;stroke-width:3.48429942"
     d="m 920.09596,2000.0262 c -5.74911,-0.791 -25.34828,-3.109 -43.55376,-5.1509 C 592.19337,1962.9828 323.90099,1796.0376 162.3244,1550.4521 80.252162,1425.708 29.719842,1291.2684 6.6257325,1136.2208 c -8.83431,-59.311 -8.83431,-212.46427 0,-271.77533 C 29.922802,708.03518 81.354292,572.05114 164.31092,447.52827 324.00058,207.82453 566.68721,53.251692 853.89426,8.3164419 c 66.01602,-10.3286 217.79654,-11.21696 282.22824,-1.65185 85.1951,12.6475101 162.0635,32.9665101 235.1902,62.1690001 309.2776,123.507118 539.2185,395.541738 609.1813,720.699428 16.2656,75.59509 19.6218,112.17271 19.503,212.54228 -0.1312,109.9065 -5.5677,156.2403 -29.1928,248.7552 -89.6809,351.1868 -368.8668,630.3862 -720.0246,720.0598 -84.9809,21.7012 -136.3688,28.1439 -234.8654,29.4457 -46.95095,0.6207 -90.06915,0.4812 -95.81824,-0.3097 z m 388.30934,-583.2133 c 218.3198,-145.5165 293.9458,-197.6509 297.9533,-205.4006 4.6559,-9.0032 5.3709,-37.1035 5.3709,-211.0791 0,-173.9757 -0.715,-202.07599 -5.3709,-211.0792 -4.0075,-7.74974 -79.6335,-59.88413 -297.9533,-205.40064 -277.6117,-185.03623 -293.3802,-195.01478 -308.1705,-195.01478 -14.79022,0 -30.55876,9.97855 -308.17043,195.01478 -218.3199,145.51651 -293.94578,197.6509 -297.95336,205.40064 -4.65576,9.00321 -5.37073,37.1035 -5.37073,211.0792 0,173.9756 0.71497,202.0759 5.37073,211.0791 4.00758,7.7497 79.63346,59.8841 297.95336,205.4006 277.61167,185.0363 293.38021,195.0146 308.17043,195.0146 14.7903,0 30.5588,-9.9783 308.1705,-195.0146 z M 736.39653,1330.4668 C 621.9473,1254.2934 528.26319,1190.2625 528.20964,1188.176 c -0.15365,-5.9915 184.61042,-127.6699 191.23248,-125.9382 7.19315,1.881 227.54674,148.5024 231.11308,153.7806 4.0265,5.9593 1.5168,250.427 -2.58485,251.7887 -1.91637,0.6363 -97.12458,-61.167 -211.57382,-137.3403 z m 313.19927,136.1818 c -3.1842,-3.1843 -2.8514,-245.8553 0.3435,-250.6302 3.5178,-5.2572 223.869,-151.8928 231.0881,-153.7806 6.6211,-1.7315 191.3851,119.9455 191.2345,125.9382 -0.084,3.3759 -413.396,280.7954 -418.3406,280.7954 -1.1015,0 -3.048,-1.0453 -4.3255,-2.3228 z M 902.67446,1066.3484 c -49.82549,-33.5817 -91.03231,-63.0041 -91.57071,-65.383 -1.16626,-5.15324 180.19936,-127.80919 188.98535,-127.80919 7.7478,0 190.04,121.96012 190.04,127.14369 0,5.4412 -182.2209,127.2216 -190.26761,127.1581 -3.6274,-0.028 -47.36156,-27.528 -97.18703,-61.1096 z m -416.37379,-66.0152 c 0,-63.27166 1.17368,-92.334 3.72893,-92.334 5.75846,0 135.36277,88.38894 135.38882,92.334 0.0245,3.9479 -129.53607,92.3339 -135.34934,92.3339 -2.60689,0 -3.76841,-28.4602 -3.76841,-92.3339 z m 953.96743,47.7405 c -35.8545,-24.3409 -65.1909,-45.8242 -65.192,-47.7405 0,-3.93725 129.5896,-92.334 135.3639,-92.334 2.5554,0 3.729,29.06234 3.729,92.334 0,71.6341 -0.9764,92.2961 -4.3553,92.1653 -2.3955,-0.093 -33.691,-20.0839 -69.5456,-44.4248 z M 620.44619,878.31186 c -49.82547,-33.4715 -90.9696,-62.82778 -91.43133,-65.23623 -1.08528,-5.66084 415.44829,-282.88289 420.42125,-279.80941 4.32089,2.67043 5.37552,244.98332 1.09411,251.38167 -4.48139,6.69725 -225.25662,152.44716 -232.52365,153.50595 -4.35433,0.63439 -40.95424,-21.81546 -97.56038,-59.84198 z m 545.28441,-14.38814 c -62.2772,-41.48881 -114.3832,-77.15933 -115.7911,-79.26781 -4.2814,-6.41174 -3.2268,-248.71926 1.094,-251.38969 4.3622,-2.69594 421.0857,273.54192 421.2285,279.2241 0.1109,4.36594 -182.3143,126.86758 -188.9256,126.86758 -2.4061,0 -55.3287,-33.94538 -117.6058,-75.43418 z"
     id="path4026"
     inkscape:connector-curvature="0" />
</svg>
