<?xml version="1.0" encoding="UTF-8" standalone="no"?>
<!-- Created with Inkscape (http://www.inkscape.org/) -->

<svg
   xmlns:dc="http://purl.org/dc/elements/1.1/"
   xmlns:cc="http://creativecommons.org/ns#"
   xmlns:rdf="http://www.w3.org/1999/02/22-rdf-syntax-ns#"
   xmlns:svg="http://www.w3.org/2000/svg"
   xmlns="http://www.w3.org/2000/svg"
   xmlns:sodipodi="http://sodipodi.sourceforge.net/DTD/sodipodi-0.dtd"
   xmlns:inkscape="http://www.inkscape.org/namespaces/inkscape"
   version="1.1"
   id="svg3985"
   width="600"
   height="600"
   viewBox="0 0 600 600"
   sodipodi:docname="codepen.svg"
   inkscape:version="0.92.4 (5da689c313, 2019-01-14)">
  <metadata
     id="metadata3991">
    <rdf:RDF>
      <cc:Work
         rdf:about="">
        <dc:format>image/svg+xml</dc:format>
        <dc:type
           rdf:resource="http://purl.org/dc/dcmitype/StillImage" />
      </cc:Work>
    </rdf:RDF>
  </metadata>
  <defs
     id="defs3989" />
  <sodipodi:namedview
     pagecolor="#ffffff"
     bordercolor="#666666"
     borderopacity="1"
     objecttolerance="10"
     gridtolerance="10"
     guidetolerance="10"
     inkscape:pageopacity="0"
     inkscape:pageshadow="2"
     inkscape:window-width="1600"
     inkscape:window-height="822"
     id="namedview3987"
     showgrid="false"
     inkscape:zoom="1.0516667"
     inkscape:cx="300"
     inkscape:cy="300"
     inkscape:window-x="0"
     inkscape:window-y="29"
     inkscape:window-maximized="1"
     inkscape:current-layer="svg3985" />
  <path
     style="fill:#000000"
     d="m 277.5,586.41364 c -1.65,-0.22702 -7.275,-0.89225 -12.5,-1.47829 C 183.39139,575.78216 106.39101,527.86856 60.018247,457.38514 36.463376,421.58335 21.96051,382.99893 15.332461,338.5 c -2.535458,-17.02238 -2.535458,-60.97762 0,-78 C 22.018762,215.60998 36.779689,176.58232 60.588385,140.84404 106.41959,72.048651 176.07108,27.685979 258.5,14.789484 c 18.94671,-2.964325 62.508,-3.219285 81,-0.474084 24.45113,3.629854 46.5125,9.461446 67.5,17.84261 C 495.76318,67.604771 561.75666,145.67918 581.83609,239 c 4.66821,21.69592 5.6315,32.19376 5.59738,61 -0.0374,31.54335 -1.59794,44.84123 -8.37838,71.39318 -25.73858,100.79122 -105.86539,180.92196 -206.64831,206.65844 -24.38967,6.22827 -39.13807,8.07732 -67.40678,8.45096 -13.475,0.17811 -25.85,0.13808 -27.5,-0.0889 z M 388.94546,419.03042 c 62.65819,-41.76349 84.36295,-56.72615 85.51313,-58.95034 C 475.7948,357.49614 476,349.43131 476,299.5 c 0,-49.93131 -0.2052,-57.99614 -1.54141,-60.58008 -1.15018,-2.22419 -22.85494,-17.18685 -85.51313,-58.95034 C 309.27043,126.86386 304.74483,124 300.5,124 c -4.24483,0 -8.77043,2.86386 -88.44546,55.96958 -62.65819,41.76349 -84.36295,56.72615 -85.51313,58.95034 C 125.2052,241.50386 125,249.56869 125,299.5 c 0,49.93131 0.2052,57.99614 1.54141,60.58008 1.15018,2.22419 22.85494,17.18685 85.51313,58.95034 C 291.72957,472.13614 296.25517,475 300.5,475 c 4.24483,0 8.77043,-2.86386 88.44546,-55.96958 z M 224.77795,394.24893 c -32.84713,-21.86191 -59.73463,-40.23888 -59.75,-40.83771 -0.0441,-1.71956 52.98351,-36.64149 54.88405,-36.14448 2.06445,0.53986 65.30631,42.62044 66.32986,44.1353 1.15561,1.71032 0.43532,71.87301 -0.74186,72.26383 -0.55,0.18259 -27.87492,-17.55503 -60.72205,-39.41694 z m 89.88872,39.0844 c -0.91385,-0.91385 -0.81834,-70.5609 0.0986,-71.93129 1.00961,-1.50882 64.25079,-43.59349 66.32269,-44.1353 1.90028,-0.49694 54.92787,34.42458 54.88463,36.14448 C 435.94827,354.3801 317.32722,434 315.9081,434 c -0.31612,0 -0.87477,-0.3 -1.24143,-0.66667 z M 272.5,318.44648 c -14.3,-9.638 -26.12643,-18.08227 -26.28095,-18.76504 C 245.88433,298.20247 297.93658,263 300.45818,263 302.68179,263 355,298.00277 355,299.49045 c 0,1.56165 -52.29773,36.51284 -54.60715,36.4946 C 299.35178,335.97683 286.8,328.08447 272.5,318.44648 Z M 153,299.5 c 0,-18.15906 0.33685,-26.5 1.07021,-26.5 1.65269,0 38.84935,25.36778 38.85683,26.5 0.007,1.13308 -37.17708,26.5 -38.8455,26.5 C 153.33336,326 153,317.83189 153,299.5 Z m 273.79034,13.70162 C 416.50003,306.21573 408.08043,300.05 408.08012,299.5 c -6.3e-4,-1.12998 37.19246,-26.5 38.84967,-26.5 0.73336,0 1.07021,8.34094 1.07021,26.5 0,20.55914 -0.28023,26.48915 -1.25,26.45162 -0.6875,-0.0266 -9.66935,-5.76411 -19.95966,-12.75 z M 191.5,264.47968 c -14.3,-9.60638 -26.10843,-18.03168 -26.24095,-18.72291 -0.31148,-1.62467 119.23438,-81.18788 120.66163,-80.30579 1.2401,0.76642 1.54278,70.31064 0.31401,72.14698 -1.28617,1.92212 -64.64904,43.7526 -66.73469,44.05647 -1.2497,0.18207 -11.75394,-6.26107 -28,-17.17475 z m 156.49756,-4.12942 c -17.87366,-11.90736 -32.82817,-22.14486 -33.23225,-22.75 -1.22876,-1.84018 -0.92609,-71.38286 0.31401,-72.14928 1.25193,-0.77374 120.85231,78.50701 120.89331,80.1378 C 436.00413,246.84182 383.64812,282 381.75064,282 c -0.69054,0 -15.87942,-9.74238 -33.75308,-21.64974 z"
     id="path4026"
     inkscape:connector-curvature="0" />
</svg>
