<?xml version="1.0" encoding="UTF-8" standalone="no"?>
<svg
   xmlns:dc="http://purl.org/dc/elements/1.1/"
   xmlns:cc="http://creativecommons.org/ns#"
   xmlns:rdf="http://www.w3.org/1999/02/22-rdf-syntax-ns#"
   xmlns:svg="http://www.w3.org/2000/svg"
   xmlns="http://www.w3.org/2000/svg"
   xmlns:sodipodi="http://sodipodi.sourceforge.net/DTD/sodipodi-0.dtd"
   xmlns:inkscape="http://www.inkscape.org/namespaces/inkscape"
   viewBox="0 0 2000 1954.1447"
   enable-background="new 0 0 50 50"
   version="1.1"
   id="svg4"
   sodipodi:docname="github.svg"
   inkscape:version="0.92.4 (5da689c313, 2019-01-14)"
   width="2000"
   height="1954.1447">
  <metadata
     id="metadata10">
    <rdf:RDF>
      <cc:Work
         rdf:about="">
        <dc:format>image/svg+xml</dc:format>
        <dc:type
           rdf:resource="http://purl.org/dc/dcmitype/StillImage" />
      </cc:Work>
    </rdf:RDF>
  </metadata>
  <defs
     id="defs8" />
  <sodipodi:namedview
     pagecolor="#ffffff"
     bordercolor="#666666"
     borderopacity="1"
     objecttolerance="10"
     gridtolerance="10"
     guidetolerance="10"
     inkscape:pageopacity="0"
     inkscape:pageshadow="2"
     inkscape:window-width="1600"
     inkscape:window-height="822"
     id="namedview6"
     showgrid="false"
     inkscape:zoom="0.026074563"
     inkscape:cx="4593.8931"
     inkscape:cy="7477.8814"
     inkscape:window-x="0"
     inkscape:window-y="29"
     inkscape:window-maximized="1"
     inkscape:current-layer="svg4" />
  <path
     d="M 1003.3074,0 C 448.144,0 0,448.144 0,1003.3074 c 0,441.4553 287.6148,816.0233 688.9378,949.7977 53.5097,6.6887 66.8872,-20.0662 66.8872,-46.821 v -173.9067 c -280.9262,60.1985 -341.1246,-133.7743 -341.1246,-133.7743 -46.821,-113.7082 -113.7081,-147.1517 -113.7081,-147.1517 -93.6421,-60.1985 6.6887,-60.1985 6.6887,-60.1985 100.3307,6.6887 153.8405,100.3308 153.8405,100.3308 86.9532,153.8405 234.105,107.0194 294.3034,80.2646 6.6887,-66.8872 33.4436,-107.0195 66.8872,-133.7744 -220.7276,-26.7548 -454.8327,-113.7081 -454.8327,-494.9649 0,-107.0195 40.1323,-200.6615 100.3307,-267.5487 -13.3774,-26.7548 -46.821,-127.0855 6.6887,-267.5486 0,0 86.9534,-26.7549 274.2374,100.3307 80.2646,-20.0661 167.2179,-33.4436 254.1712,-33.4436 86.9533,0 173.9066,13.3775 254.1713,33.4436 193.9727,-127.0856 274.2373,-100.3307 274.2373,-100.3307 53.5097,140.4631 20.0661,240.7938 6.6886,267.5486 66.8873,66.8872 100.3309,160.5292 100.3309,267.5487 0,387.9455 -234.1051,468.2101 -454.8327,494.9649 33.4435,33.4436 66.8871,93.6421 66.8871,187.2841 v 274.2373 c 0,26.7549 20.0662,60.1985 66.8872,46.8211 401.323,-133.7743 682.249,-508.3425 682.249,-949.7977 C 2006.6148,448.144 1558.4709,0 1003.3074,0 Z"
     id="path2"
     inkscape:connector-curvature="0"
     style="clip-rule:evenodd;fill:#181616;fill-rule:evenodd;stroke-width:66.88715363" />
</svg>
