<?xml version="1.0" encoding="UTF-8" standalone="no"?>
<!-- Created with Inkscape (http://www.inkscape.org/) -->

<svg
   xmlns:dc="http://purl.org/dc/elements/1.1/"
   xmlns:cc="http://creativecommons.org/ns#"
   xmlns:rdf="http://www.w3.org/1999/02/22-rdf-syntax-ns#"
   xmlns:svg="http://www.w3.org/2000/svg"
   xmlns="http://www.w3.org/2000/svg"
   xmlns:sodipodi="http://sodipodi.sourceforge.net/DTD/sodipodi-0.dtd"
   xmlns:inkscape="http://www.inkscape.org/namespaces/inkscape"
   width="2000"
   height="1948.5739"
   id="svg3070"
   version="1.1"
   inkscape:version="0.92.4 (5da689c313, 2019-01-14)"
   sodipodi:docname="linkedin-2.svg">
  <defs
     id="defs3072" />
  <sodipodi:namedview
     id="base"
     pagecolor="#ffffff"
     bordercolor="#666666"
     borderopacity="1.0"
     inkscape:pageopacity="0.0"
     inkscape:pageshadow="2"
     inkscape:zoom="0.12374369"
     inkscape:cx="307.57075"
     inkscape:cy="887.42473"
     inkscape:document-units="px"
     inkscape:current-layer="layer1"
     showgrid="false"
     fit-margin-top="0"
     fit-margin-left="0"
     fit-margin-right="0"
     fit-margin-bottom="0"
     inkscape:window-width="1600"
     inkscape:window-height="822"
     inkscape:window-x="0"
     inkscape:window-y="29"
     inkscape:window-maximized="1" />
  <metadata
     id="metadata3075">
    <rdf:RDF>
      <cc:Work
         rdf:about="">
        <dc:format>image/svg+xml</dc:format>
        <dc:type
           rdf:resource="http://purl.org/dc/dcmitype/StillImage" />
        <dc:title />
      </cc:Work>
    </rdf:RDF>
  </metadata>
  <g
     inkscape:label="Layer 1"
     inkscape:groupmode="layer"
     id="layer1"
     transform="translate(1752.0062,1752.3828)">
    <g
       transform="matrix(1.018827,0,0,-1.018827,170.5996,498.03288)"
       id="g3019">
      <path
         d="m -1887.0778,2071.8257 c 0,75.645 64.9462,137.0043 145.0652,137.0043 H -69.10116 c 80.11634,0 145.065216,-61.3593 145.065216,-137.0043 V 433.26835 c 0,-75.67052 -64.948876,-137.0043 -145.065216,-137.0043 H -1742.0126 c -80.119,0 -145.0652,61.33378 -145.0652,137.0043 z"
         style="fill:#006699;fill-opacity:1;fill-rule:nonzero;stroke:none;stroke-width:25.97277069"
         id="path14"
         inkscape:connector-curvature="0" />
      <path
         d="M -1292.0191,607.81405 V 1471.4448 H -1588.519 V 607.81405 Z m -148.2512,981.54485 c 103.3955,0 167.7504,66.3171 167.7504,149.1944 -1.9269,84.7429 -64.3549,149.2199 -165.7892,149.2199 -101.4236,0 -167.7372,-64.477 -167.7372,-149.2199 0,-82.8773 64.3417,-149.1944 163.8437,-149.1944 h 1.927 z"
         style="fill:#ffffff;fill-opacity:1;fill-rule:evenodd;stroke:none;stroke-width:25.97277069"
         id="path28"
         inkscape:connector-curvature="0" />
    </g>
    <path
       d="m -978.59267,-121.22448 h 302.07945 v -491.36796 c 0,-26.29724 1.96323,-52.56848 9.93985,-71.36707 21.8376,-52.54242 71.54229,-106.95949 154.99308,-106.95949 109.30894,0 153.03519,80.68828 153.03519,198.9738 v 470.72072 h 302.055214 v -504.51658 c 0,-270.2628 -149.030754,-396.02094 -347.776964,-396.02094 -162.96432,0 -234.5066,88.18696 -274.25531,148.25402 h 2.017 v -127.60682 h -302.0794 c 3.96411,82.56303 0,879.89032 0,879.89032 z"
       style="fill:#ffffff;fill-opacity:1;fill-rule:evenodd;stroke:none;stroke-width:26.46176147"
       id="path30"
       inkscape:connector-curvature="0" />
  </g>
</svg>
